<mxfile host="65bd71144e">
    <diagram id="8ykAC_jNmjG-_Q9j8YUN" name="Page-1">
        <mxGraphModel dx="1686" dy="848" grid="1" gridSize="10" guides="1" tooltips="1" connect="1" arrows="1" fold="1" page="1" pageScale="1" pageWidth="1169" pageHeight="827" math="0" shadow="0">
            <root>
                <mxCell id="0"/>
                <mxCell id="1" parent="0"/>
                <mxCell id="10" style="edgeStyle=none;shape=link;html=1;" edge="1" parent="1" source="3" target="7">
                    <mxGeometry relative="1" as="geometry"/>
                </mxCell>
                <mxCell id="13" style="edgeStyle=none;shape=link;html=1;" edge="1" parent="1" source="3" target="8">
                    <mxGeometry relative="1" as="geometry"/>
                </mxCell>
                <mxCell id="16" style="edgeStyle=none;shape=link;html=1;" edge="1" parent="1" source="3" target="14">
                    <mxGeometry relative="1" as="geometry"/>
                </mxCell>
                <mxCell id="17" style="edgeStyle=none;shape=link;html=1;" edge="1" parent="1" source="3" target="15">
                    <mxGeometry relative="1" as="geometry"/>
                </mxCell>
                <mxCell id="37" style="edgeStyle=none;shape=link;html=1;" edge="1" parent="1" source="3" target="36">
                    <mxGeometry relative="1" as="geometry"/>
                </mxCell>
                <mxCell id="44" style="edgeStyle=none;shape=link;html=1;" edge="1" parent="1" source="3" target="43">
                    <mxGeometry relative="1" as="geometry"/>
                </mxCell>
                <mxCell id="54" style="edgeStyle=none;shape=link;html=1;" edge="1" parent="1" source="3" target="45">
                    <mxGeometry relative="1" as="geometry"/>
                </mxCell>
                <mxCell id="59" style="edgeStyle=none;shape=link;html=1;" edge="1" parent="1" source="3" target="55">
                    <mxGeometry relative="1" as="geometry"/>
                </mxCell>
                <mxCell id="66" style="edgeStyle=none;shape=link;html=1;" edge="1" parent="1" source="3" target="65">
                    <mxGeometry relative="1" as="geometry"/>
                </mxCell>
                <mxCell id="3" value="Hôtelier" style="shape=umlActor;verticalLabelPosition=bottom;verticalAlign=top;html=1;outlineConnect=0;" vertex="1" parent="1">
                    <mxGeometry x="1030" y="411" width="30" height="60" as="geometry"/>
                </mxCell>
                <mxCell id="47" style="edgeStyle=none;html=1;startArrow=none;" edge="1" parent="1" source="48" target="45">
                    <mxGeometry relative="1" as="geometry"/>
                </mxCell>
                <mxCell id="60" style="edgeStyle=none;html=1;startArrow=none;" edge="1" parent="1" source="63" target="55">
                    <mxGeometry relative="1" as="geometry"/>
                </mxCell>
                <mxCell id="7" value="Reserver chambre(s)" style="ellipse;whiteSpace=wrap;html=1;" vertex="1" parent="1">
                    <mxGeometry x="110" y="361" width="120" height="80" as="geometry"/>
                </mxCell>
                <mxCell id="8" value="Consulter&amp;nbsp; disponibilité chambres" style="ellipse;whiteSpace=wrap;html=1;" vertex="1" parent="1">
                    <mxGeometry x="630" y="726" width="120" height="80" as="geometry"/>
                </mxCell>
                <mxCell id="27" style="edgeStyle=none;html=1;startArrow=none;" edge="1" parent="1" source="19" target="7">
                    <mxGeometry relative="1" as="geometry"/>
                </mxCell>
                <mxCell id="14" value="Annuler reservation" style="ellipse;whiteSpace=wrap;html=1;" vertex="1" parent="1">
                    <mxGeometry x="370" y="431" width="120" height="80" as="geometry"/>
                </mxCell>
                <mxCell id="25" style="edgeStyle=none;html=1;startArrow=none;" edge="1" parent="1" source="22" target="7">
                    <mxGeometry relative="1" as="geometry"/>
                </mxCell>
                <mxCell id="15" value="Modifier reservation" style="ellipse;whiteSpace=wrap;html=1;" vertex="1" parent="1">
                    <mxGeometry x="370" y="671" width="120" height="80" as="geometry"/>
                </mxCell>
                <mxCell id="29" style="edgeStyle=none;html=1;startArrow=none;" edge="1" parent="1" source="31" target="7">
                    <mxGeometry relative="1" as="geometry"/>
                </mxCell>
                <mxCell id="30" style="edgeStyle=none;html=1;startArrow=none;" edge="1" parent="1" source="33" target="8">
                    <mxGeometry relative="1" as="geometry"/>
                </mxCell>
                <mxCell id="24" value="Chambres" style="ellipse;whiteSpace=wrap;html=1;" vertex="1" parent="1">
                    <mxGeometry x="110" y="726" width="120" height="80" as="geometry"/>
                </mxCell>
                <mxCell id="26" value="" style="edgeStyle=none;html=1;endArrow=none;" edge="1" parent="1" source="15" target="22">
                    <mxGeometry relative="1" as="geometry">
                        <mxPoint x="405.80343056505353" y="628.1326258434435" as="sourcePoint"/>
                        <mxPoint x="204.1525987298187" y="433.8876876657512" as="targetPoint"/>
                    </mxGeometry>
                </mxCell>
                <mxCell id="22" value="&amp;lt;&amp;lt;include&amp;gt;&amp;gt;" style="text;html=1;strokeColor=none;fillColor=none;align=center;verticalAlign=middle;whiteSpace=wrap;rounded=0;" vertex="1" parent="1">
                    <mxGeometry x="270" y="541" width="60" height="30" as="geometry"/>
                </mxCell>
                <mxCell id="28" value="" style="edgeStyle=none;html=1;endArrow=none;" edge="1" parent="1" source="14" target="19">
                    <mxGeometry relative="1" as="geometry">
                        <mxPoint x="378.06014741320223" y="480.9749965930416" as="sourcePoint"/>
                        <mxPoint x="221.97113516291392" y="420.98889813958226" as="targetPoint"/>
                    </mxGeometry>
                </mxCell>
                <mxCell id="19" value="&amp;lt;&amp;lt;include&amp;gt;&amp;gt;" style="text;html=1;strokeColor=none;fillColor=none;align=center;verticalAlign=middle;whiteSpace=wrap;rounded=0;" vertex="1" parent="1">
                    <mxGeometry x="280" y="421" width="60" height="30" as="geometry"/>
                </mxCell>
                <mxCell id="32" value="" style="edgeStyle=none;html=1;endArrow=none;" edge="1" parent="1" source="24" target="31">
                    <mxGeometry relative="1" as="geometry">
                        <mxPoint x="170" y="645" as="sourcePoint"/>
                        <mxPoint x="170" y="441" as="targetPoint"/>
                    </mxGeometry>
                </mxCell>
                <mxCell id="31" value="&amp;lt;&amp;lt;include&amp;gt;&amp;gt;" style="text;html=1;strokeColor=none;fillColor=none;align=center;verticalAlign=middle;whiteSpace=wrap;rounded=0;" vertex="1" parent="1">
                    <mxGeometry x="140" y="511" width="60" height="30" as="geometry"/>
                </mxCell>
                <mxCell id="34" value="" style="edgeStyle=none;html=1;endArrow=none;" edge="1" parent="1" source="24" target="33">
                    <mxGeometry relative="1" as="geometry">
                        <mxPoint x="223.14362463980433" y="703.5682543922205" as="sourcePoint"/>
                        <mxPoint x="446.90926958712316" y="782.3646173550758" as="targetPoint"/>
                    </mxGeometry>
                </mxCell>
                <mxCell id="33" value="&amp;lt;&amp;lt;include&amp;gt;&amp;gt;" style="text;html=1;strokeColor=none;fillColor=none;align=center;verticalAlign=middle;whiteSpace=wrap;rounded=0;" vertex="1" parent="1">
                    <mxGeometry x="400" y="751" width="60" height="30" as="geometry"/>
                </mxCell>
                <mxCell id="39" style="edgeStyle=none;html=1;entryX=0.5;entryY=1;entryDx=0;entryDy=0;startArrow=none;" edge="1" parent="1" source="40" target="14">
                    <mxGeometry relative="1" as="geometry"/>
                </mxCell>
                <mxCell id="36" value="Garder trace annulation" style="ellipse;whiteSpace=wrap;html=1;" vertex="1" parent="1">
                    <mxGeometry x="370" y="576" width="120" height="80" as="geometry"/>
                </mxCell>
                <mxCell id="41" value="" style="edgeStyle=none;html=1;entryX=0.5;entryY=1;entryDx=0;entryDy=0;endArrow=none;" edge="1" parent="1" source="36" target="40">
                    <mxGeometry relative="1" as="geometry">
                        <mxPoint x="430" y="576" as="sourcePoint"/>
                        <mxPoint x="430" y="511" as="targetPoint"/>
                    </mxGeometry>
                </mxCell>
                <mxCell id="40" value="&amp;lt;&amp;lt;include&amp;gt;&amp;gt;" style="text;html=1;strokeColor=none;fillColor=none;align=center;verticalAlign=middle;whiteSpace=wrap;rounded=0;" vertex="1" parent="1">
                    <mxGeometry x="400" y="531" width="60" height="30" as="geometry"/>
                </mxCell>
                <mxCell id="67" style="edgeStyle=none;html=1;startArrow=none;" edge="1" parent="1" source="68" target="65">
                    <mxGeometry relative="1" as="geometry"/>
                </mxCell>
                <mxCell id="43" value="Consulter liste clients" style="ellipse;whiteSpace=wrap;html=1;" vertex="1" parent="1">
                    <mxGeometry x="610" y="281" width="120" height="80" as="geometry"/>
                </mxCell>
                <mxCell id="51" style="edgeStyle=none;html=1;startArrow=none;" edge="1" parent="1" source="52" target="43">
                    <mxGeometry relative="1" as="geometry"/>
                </mxCell>
                <mxCell id="45" value="Enregistrer client" style="ellipse;whiteSpace=wrap;html=1;" vertex="1" parent="1">
                    <mxGeometry x="370" y="291" width="120" height="80" as="geometry"/>
                </mxCell>
                <mxCell id="49" value="" style="edgeStyle=none;html=1;endArrow=none;" edge="1" parent="1" source="7" target="48">
                    <mxGeometry relative="1" as="geometry">
                        <mxPoint x="208.5998755659689" y="370.37648248456367" as="sourcePoint"/>
                        <mxPoint x="396.3743022534386" y="221.60904349727548" as="targetPoint"/>
                    </mxGeometry>
                </mxCell>
                <mxCell id="48" value="&amp;lt;&amp;lt;include&amp;gt;&amp;gt;" style="text;html=1;strokeColor=none;fillColor=none;align=center;verticalAlign=middle;whiteSpace=wrap;rounded=0;" vertex="1" parent="1">
                    <mxGeometry x="280" y="351" width="60" height="30" as="geometry"/>
                </mxCell>
                <mxCell id="53" value="" style="edgeStyle=none;html=1;endArrow=none;" edge="1" parent="1" source="45" target="52">
                    <mxGeometry relative="1" as="geometry">
                        <mxPoint x="435" y="231" as="sourcePoint"/>
                        <mxPoint x="435" y="311" as="targetPoint"/>
                    </mxGeometry>
                </mxCell>
                <mxCell id="52" value="&amp;lt;&amp;lt;include&amp;gt;&amp;gt;" style="text;html=1;strokeColor=none;fillColor=none;align=center;verticalAlign=middle;whiteSpace=wrap;rounded=0;" vertex="1" parent="1">
                    <mxGeometry x="520" y="306" width="60" height="30" as="geometry"/>
                </mxCell>
                <mxCell id="55" value="Facturer" style="ellipse;whiteSpace=wrap;html=1;" vertex="1" parent="1">
                    <mxGeometry x="620" y="21" width="120" height="80" as="geometry"/>
                </mxCell>
                <mxCell id="64" value="" style="edgeStyle=none;html=1;endArrow=none;" edge="1" parent="1" source="7" target="63">
                    <mxGeometry relative="1" as="geometry">
                        <mxPoint x="218" y="377" as="sourcePoint"/>
                        <mxPoint x="602" y="184.9999999999999" as="targetPoint"/>
                    </mxGeometry>
                </mxCell>
                <mxCell id="63" value="&amp;lt;&amp;lt;include&amp;gt;&amp;gt;" style="text;html=1;strokeColor=none;fillColor=none;align=center;verticalAlign=middle;whiteSpace=wrap;rounded=0;" vertex="1" parent="1">
                    <mxGeometry x="430" y="176" width="60" height="30" as="geometry"/>
                </mxCell>
                <mxCell id="70" style="edgeStyle=none;html=1;startArrow=none;" edge="1" parent="1" source="71" target="55">
                    <mxGeometry relative="1" as="geometry"/>
                </mxCell>
                <mxCell id="65" value="Consulter fiche client" style="ellipse;whiteSpace=wrap;html=1;" vertex="1" parent="1">
                    <mxGeometry x="610" y="171" width="120" height="80" as="geometry"/>
                </mxCell>
                <mxCell id="69" value="" style="edgeStyle=none;html=1;endArrow=none;" edge="1" parent="1" source="43" target="68">
                    <mxGeometry relative="1" as="geometry">
                        <mxPoint x="675.897233121606" y="281.1936764291611" as="sourcePoint"/>
                        <mxPoint x="683.878268070086" y="230.79125754444067" as="targetPoint"/>
                    </mxGeometry>
                </mxCell>
                <mxCell id="68" value="&amp;lt;&amp;lt;include&amp;gt;&amp;gt;" style="text;html=1;strokeColor=none;fillColor=none;align=center;verticalAlign=middle;whiteSpace=wrap;rounded=0;" vertex="1" parent="1">
                    <mxGeometry x="560" y="251" width="60" height="30" as="geometry"/>
                </mxCell>
                <mxCell id="72" value="" style="edgeStyle=none;html=1;endArrow=none;" edge="1" parent="1" source="65" target="71">
                    <mxGeometry relative="1" as="geometry">
                        <mxPoint x="701.1364064855397" y="191.69503593338936" as="sourcePoint"/>
                        <mxPoint x="718.7732735266004" y="130.29354265689994" as="targetPoint"/>
                    </mxGeometry>
                </mxCell>
                <mxCell id="71" value="&amp;lt;&amp;lt;include&amp;gt;&amp;gt;" style="text;html=1;strokeColor=none;fillColor=none;align=center;verticalAlign=middle;whiteSpace=wrap;rounded=0;" vertex="1" parent="1">
                    <mxGeometry x="640" y="121" width="60" height="30" as="geometry"/>
                </mxCell>
                <mxCell id="75" style="edgeStyle=none;shape=link;html=1;" edge="1" parent="1" source="73" target="74">
                    <mxGeometry relative="1" as="geometry"/>
                </mxCell>
                <mxCell id="73" value="Actor" style="shape=umlActor;verticalLabelPosition=bottom;verticalAlign=top;html=1;outlineConnect=0;" vertex="1" parent="1">
                    <mxGeometry x="1030" y="236" width="30" height="60" as="geometry"/>
                </mxCell>
                <mxCell id="74" value="Demande chambre(s)" style="ellipse;whiteSpace=wrap;html=1;" vertex="1" parent="1">
                    <mxGeometry x="800" y="86" width="120" height="80" as="geometry"/>
                </mxCell>
                <mxCell id="77" value="" style="swimlane;startSize=0;" vertex="1" parent="1">
                    <mxGeometry x="50" y="10" width="960" height="810" as="geometry">
                        <mxRectangle x="50" y="10" width="50" height="40" as="alternateBounds"/>
                    </mxGeometry>
                </mxCell>
            </root>
        </mxGraphModel>
    </diagram>
</mxfile>